<?xml version="1.0" encoding="UTF-8"?>
<!DOCTYPE svg PUBLIC "-//W3C//DTD SVG 1.1//EN" "http://www.w3.org/Graphics/SVG/1.1/DTD/svg11.dtd">
<svg xmlns="http://www.w3.org/2000/svg" version="1.1" width="406px" height="146px" style="shape-rendering:geometricPrecision; text-rendering:geometricPrecision; image-rendering:optimizeQuality; fill-rule:evenodd; clip-rule:evenodd" xmlns:xlink="http://www.w3.org/1999/xlink">
<g><path style="opacity:1" fill="#fefefe" d="M -0.5,-0.5 C 134.833,-0.5 270.167,-0.5 405.5,-0.5C 405.5,48.1667 405.5,96.8333 405.5,145.5C 270.167,145.5 134.833,145.5 -0.5,145.5C -0.5,96.8333 -0.5,48.1667 -0.5,-0.5 Z"/></g>
<g><path style="opacity:1" fill="#868686" d="M 57.5,41.5 C 63.3188,40.3475 69.3188,40.1808 75.5,41C 74.9558,41.7172 74.2891,42.2172 73.5,42.5C 68.3595,41.5119 63.0262,41.1786 57.5,41.5 Z"/></g>
<g><path style="opacity:1" fill="#141414" d="M 57.5,41.5 C 63.0262,41.1786 68.3595,41.5119 73.5,42.5C 64.535,50.9644 55.7017,59.631 47,68.5C 43.7581,64.3603 42.7581,59.6937 44,54.5C 48.3688,49.9633 52.8688,45.6299 57.5,41.5 Z"/></g>
<g><path style="opacity:1" fill="#141414" d="M 78.5,41.5 C 81.5184,41.3354 84.5184,41.502 87.5,42C 91.6667,46.1667 95.8333,50.3333 100,54.5C 100.667,60.5 100.667,66.5 100,72.5C 91.5306,63.0297 82.6973,53.863 73.5,45C 75.2331,43.8111 76.8998,42.6444 78.5,41.5 Z"/></g>
<g><path style="opacity:1" fill="#171717" d="M 236.5,48.5 C 236.5,60.5 236.5,72.5 236.5,84.5C 235.167,84.5 233.833,84.5 232.5,84.5C 232.5,72.5 232.5,60.5 232.5,48.5C 233.833,48.5 235.167,48.5 236.5,48.5 Z"/></g>
<g><path style="opacity:1" fill="#858585" d="M 236.5,48.5 C 237.495,60.6554 237.829,72.9887 237.5,85.5C 235.585,85.7845 233.919,85.4511 232.5,84.5C 233.833,84.5 235.167,84.5 236.5,84.5C 236.5,72.5 236.5,60.5 236.5,48.5 Z"/></g>
<g><path style="opacity:1" fill="#1a1a1a" d="M 113.5,51.5 C 115.223,50.193 117.057,50.193 119,51.5C 122.53,60.4229 125.863,69.4229 129,78.5C 132.137,69.4229 135.47,60.4229 139,51.5C 140.726,50.4238 142.559,50.2571 144.5,51C 139.878,61.6969 135.544,72.5303 131.5,83.5C 129.647,84.7596 127.814,84.7596 126,83.5C 122.1,72.6156 117.933,61.949 113.5,51.5 Z"/></g>
<g><path style="opacity:1" fill="#191919" d="M 240.5,51.5 C 242.265,50.5386 244.265,50.2053 246.5,50.5C 249.359,59.9097 252.526,69.2431 256,78.5C 259.137,69.4229 262.47,60.4229 266,51.5C 267.726,50.4238 269.559,50.2571 271.5,51C 266.946,61.3243 262.78,71.8243 259,82.5C 255.868,85.2576 253.535,84.5909 252,80.5C 248.433,70.6147 244.6,60.948 240.5,51.5 Z"/></g>
<g><path style="opacity:1" fill="#1b1b1b" d="M 147.5,50.5 C 151.485,50.6294 152.818,52.4628 151.5,56C 146.728,56.8104 145.395,54.9771 147.5,50.5 Z"/></g>
<g><path style="opacity:1" fill="#1b1b1b" d="M 162.5,61.5 C 166.721,60.8076 170.387,61.8076 173.5,64.5C 172.833,65.8333 171.833,66.8333 170.5,67.5C 167.448,64.6894 164.781,64.8561 162.5,68C 162.759,69.2613 163.426,70.2613 164.5,71C 171.677,71.1655 174.843,74.6655 174,81.5C 170.257,85.2594 165.757,86.4261 160.5,85C 158.939,84.059 157.605,82.8924 156.5,81.5C 157.438,80.4471 158.605,79.7804 160,79.5C 162.818,81.5814 165.818,81.9147 169,80.5C 169.72,78.8876 169.554,77.3876 168.5,76C 164.021,75.8459 160.521,74.0126 158,70.5C 157.053,66.2791 158.553,63.2791 162.5,61.5 Z"/></g>
<g><path style="opacity:1" fill="#1d1d1d" d="M 225.5,67.5 C 225.5,73.1667 225.5,78.8333 225.5,84.5C 224.5,84.5 223.5,84.5 222.5,84.5C 222.649,83.448 222.483,82.448 222,81.5C 217.281,86.3657 212.281,86.699 207,82.5C 205.482,77.9149 206.649,74.4149 210.5,72C 214.026,70.6632 217.692,70.1632 221.5,70.5C 221.703,68.6096 221.037,67.1096 219.5,66C 216.007,64.9963 212.841,65.4963 210,67.5C 208.242,66.5305 207.742,65.3639 208.5,64C 212.976,61.123 217.643,60.7896 222.5,63C 224.141,64.129 225.141,65.629 225.5,67.5 Z"/></g>
<g><path style="opacity:1" fill="#1b1b1b" d="M 311.5,61.5 C 311.5,62.8333 311.5,64.1667 311.5,65.5C 309.901,65.2322 308.568,65.5655 307.5,66.5C 305.589,66.5743 304.422,67.5743 304,69.5C 303.501,74.8229 303.334,80.1563 303.5,85.5C 302.167,85.5 300.833,85.5 299.5,85.5C 299.5,77.5 299.5,69.5 299.5,61.5C 300.833,61.5 302.167,61.5 303.5,61.5C 303.351,62.552 303.517,63.552 304,64.5C 305.995,62.253 308.495,61.253 311.5,61.5 Z"/></g>
<g><path style="opacity:1" fill="#1b1b1b" d="M 334.5,64.5 C 335.42,65.0674 335.754,64.4008 335.5,62.5C 336.5,62.5 337.5,62.5 338.5,62.5C 338.5,71.1667 338.5,79.8333 338.5,88.5C 337.644,92.8544 334.977,95.3544 330.5,96C 324.886,97.3241 319.886,96.1574 315.5,92.5C 316.167,91.1667 317.167,90.1667 318.5,89.5C 323.089,93.083 327.923,93.4164 333,90.5C 334.422,87.9699 334.755,85.3033 334,82.5C 327.78,86.8536 322.113,86.1869 317,80.5C 312.677,68.2707 316.844,62.104 329.5,62C 331.452,62.3661 333.118,63.1995 334.5,64.5 Z"/></g>
<g><path style="opacity:1" fill="#151515" d="M 147.5,62.5 C 148.833,62.5 150.167,62.5 151.5,62.5C 151.5,69.8333 151.5,77.1667 151.5,84.5C 150.167,84.5 148.833,84.5 147.5,84.5C 147.5,77.1667 147.5,69.8333 147.5,62.5 Z"/></g>
<g><path style="opacity:1" fill="#181818" d="M 180.5,61.5 C 181.833,61.5 183.167,61.5 184.5,61.5C 184.334,67.5092 184.501,73.5092 185,79.5C 189.767,82.7575 193.434,81.7575 196,76.5C 196.499,71.8452 196.666,67.1785 196.5,62.5C 197.833,62.5 199.167,62.5 200.5,62.5C 200.5,69.8333 200.5,77.1667 200.5,84.5C 199.167,84.5 197.833,84.5 196.5,84.5C 196.557,80.8669 195.557,80.7002 193.5,84C 188.552,86.6497 184.385,85.8164 181,81.5C 180.5,74.8417 180.334,68.175 180.5,61.5 Z"/></g>
<g><path style="opacity:1" fill="#1a1a1a" d="M 278.5,61.5 C 288.212,60.552 293.212,64.8854 293.5,74.5C 287.5,74.5 281.5,74.5 275.5,74.5C 276.264,80.392 279.598,82.5587 285.5,81C 287.949,77.9112 290.282,77.9112 292.5,81C 286.138,86.7748 279.638,86.9414 273,81.5C 268.378,72.9701 270.211,66.3035 278.5,61.5 Z"/></g>
<g><path style="opacity:1" fill="#5e5e5e" d="M 338.5,88.5 C 338.5,79.8333 338.5,71.1667 338.5,62.5C 337.5,62.5 336.5,62.5 335.5,62.5C 335.754,64.4008 335.42,65.0674 334.5,64.5C 334.5,63.5 334.5,62.5 334.5,61.5C 336.167,61.5 337.833,61.5 339.5,61.5C 339.827,70.6822 339.493,79.6822 338.5,88.5 Z"/></g>
<g><path style="opacity:1" fill="#1b1b1b" d="M 352.5,61.5 C 362.212,60.552 367.212,64.8854 367.5,74.5C 361.5,74.5 355.5,74.5 349.5,74.5C 350.203,80.3667 353.536,82.5334 359.5,81C 361.949,77.9112 364.282,77.9112 366.5,81C 360.068,86.7195 353.568,86.8861 347,81.5C 342.38,72.9239 344.214,66.2572 352.5,61.5 Z"/></g>
<g><path style="opacity:1" fill="#f5f5f5" d="M 278.5,65.5 C 283.691,64.2339 287.358,65.9006 289.5,70.5C 284.88,71.4933 280.214,71.8266 275.5,71.5C 275.615,69.0532 276.615,67.0532 278.5,65.5 Z"/></g>
<g><path style="opacity:1" fill="#6c6c6c" d="M 311.5,61.5 C 312.451,62.9187 312.784,64.5853 312.5,66.5C 310.833,66.5 309.167,66.5 307.5,66.5C 308.568,65.5655 309.901,65.2322 311.5,65.5C 311.5,64.1667 311.5,62.8333 311.5,61.5 Z"/></g>
<g><path style="opacity:1" fill="#f8f8f8" d="M 352.5,65.5 C 355.187,65.3359 357.854,65.5026 360.5,66C 362.155,67.4443 362.822,69.2776 362.5,71.5C 358.167,71.5 353.833,71.5 349.5,71.5C 349.615,69.0532 350.615,67.0532 352.5,65.5 Z"/></g>
<g><path style="opacity:1" fill="#f3f3f3" d="M 323.5,65.5 C 334.054,65.5641 337.054,70.3974 332.5,80C 323.42,83.2149 319.253,80.0482 320,70.5C 320.997,68.6769 322.164,67.0103 323.5,65.5 Z"/></g>
<g><path style="opacity:1" fill="#686868" d="M 44.5,68.5 C 43.5119,73.6405 43.1786,78.9738 43.5,84.5C 42.3475,78.6812 42.1808,72.6812 43,66.5C 43.7172,67.0442 44.2172,67.7109 44.5,68.5 Z"/></g>
<g><path style="opacity:1" fill="#141414" d="M 44.5,68.5 C 52.8119,77.1461 61.1453,85.8127 69.5,94.5C 65.9283,98.1652 61.5949,99.3319 56.5,98C 51.9633,93.6312 47.6299,89.1312 43.5,84.5C 43.1786,78.9738 43.5119,73.6405 44.5,68.5 Z"/></g>
<g><path style="opacity:1" fill="#989898" d="M 225.5,67.5 C 226.49,73.31 226.823,79.31 226.5,85.5C 224.901,85.7678 223.568,85.4345 222.5,84.5C 223.5,84.5 224.5,84.5 225.5,84.5C 225.5,78.8333 225.5,73.1667 225.5,67.5 Z"/></g>
<g><path style="opacity:1" fill="#151515" d="M 86.5,98.5 C 80.642,98.8222 74.9753,98.4889 69.5,97.5C 78.7804,89.5561 87.7804,81.2228 96.5,72.5C 100.165,76.0717 101.332,80.4051 100,85.5C 95.6312,90.0367 91.1312,94.3701 86.5,98.5 Z"/></g>
<g><path style="opacity:1" fill="#707070" d="M 214.5,74.5 C 216.948,73.5269 219.615,73.1936 222.5,73.5C 222.737,74.791 222.404,75.791 221.5,76.5C 219.721,74.6565 217.388,73.9898 214.5,74.5 Z"/></g>
<g><path style="opacity:1" fill="#f6f6f6" d="M 214.5,74.5 C 217.388,73.9898 219.721,74.6565 221.5,76.5C 221.703,78.3904 221.037,79.8904 219.5,81C 216.833,81.6667 214.167,81.6667 211.5,81C 209.736,77.5516 210.736,75.385 214.5,74.5 Z"/></g>
<g><path style="opacity:1" fill="#898989" d="M 69.5,97.5 C 74.9753,98.4889 80.642,98.8222 86.5,98.5C 80.6544,99.8166 74.6544,99.8166 68.5,98.5C 68.6236,97.8933 68.9569,97.56 69.5,97.5 Z"/></g>
</svg>
